<svg width="19" height="4" viewBox="0 0 19 4" fill="none" xmlns="http://www.w3.org/2000/svg">
<path d="M9.125 3C9.67728 3 10.125 2.55228 10.125 2C10.125 1.44772 9.67728 1 9.125 1C8.57272 1 8.125 1.44772 8.125 2C8.125 2.55228 8.57272 3 9.125 3Z" stroke="#667085" stroke-width="2" stroke-linecap="round" stroke-linejoin="round"/>
<path d="M16.125 3C16.6773 3 17.125 2.55228 17.125 2C17.125 1.44772 16.6773 1 16.125 1C15.5727 1 15.125 1.44772 15.125 2C15.125 2.55228 15.5727 3 16.125 3Z" stroke="#667085" stroke-width="2" stroke-linecap="round" stroke-linejoin="round"/>
<path d="M2.125 3C2.67728 3 3.125 2.55228 3.125 2C3.125 1.44772 2.67728 1 2.125 1C1.57272 1 1.125 1.44772 1.125 2C1.125 2.55228 1.57272 3 2.125 3Z" stroke="#667085" stroke-width="2" stroke-linecap="round" stroke-linejoin="round"/>
</svg>
