<svg width="34" height="34" viewBox="0 0 34 34" fill="none" xmlns="http://www.w3.org/2000/svg">
<g id="account_balance_FILL0_wght400_GRAD0_opsz48 1">
<path id="Vector" d="M17.3466 1.34863L17.2475 1.52239L17.3466 1.34863C17.1317 1.22616 16.8681 1.22616 16.6533 1.34863L2.98661 9.13863C2.76814 9.26316 2.63325 9.49531 2.63325 9.74678V10.8333C2.63325 11.2199 2.94665 11.5333 3.33325 11.5333H30.6666C31.0532 11.5333 31.3666 11.2199 31.3666 10.8333V9.74678C31.3666 9.49531 31.2317 9.26316 31.0132 9.13863L17.3466 1.34863ZM7.30825 24.9646C7.30825 25.3512 7.62165 25.6646 8.00825 25.6646H9.13325C9.51985 25.6646 9.83325 25.3512 9.83325 24.9646V13.9583C9.83325 13.5717 9.51985 13.2583 9.13325 13.2583H8.00825C7.62165 13.2583 7.30825 13.5717 7.30825 13.9583V24.9646ZM15.8791 24.9646C15.8791 25.3512 16.1925 25.6646 16.5791 25.6646H17.7041C18.0907 25.6646 18.4041 25.3512 18.4041 24.9646V13.9583C18.4041 13.5717 18.0907 13.2583 17.7041 13.2583H16.5791C16.1925 13.2583 15.8791 13.5717 15.8791 13.9583V24.9646ZM2.63325 29.2146C2.63325 29.6012 2.94665 29.9146 3.33325 29.9146H30.6666C31.0532 29.9146 31.3666 29.6012 31.3666 29.2146V28.0896C31.3666 27.703 31.0532 27.3896 30.6666 27.3896H3.33325C2.94665 27.3896 2.63325 27.703 2.63325 28.0896V29.2146ZM24.1666 24.9646C24.1666 25.3512 24.48 25.6646 24.8666 25.6646H25.9916C26.3782 25.6646 26.6916 25.3512 26.6916 24.9646V13.9583C26.6916 13.5717 26.3782 13.2583 25.9916 13.2583H24.8666C24.48 13.2583 24.1666 13.5717 24.1666 13.9583V24.9646ZM9.46187 9.00834C9.15423 9.00834 9.04592 8.6005 9.31302 8.44787L16.8511 4.14041C16.9433 4.08771 17.0565 4.08771 17.1488 4.14041L24.6868 8.44787C24.9539 8.6005 24.8456 9.00834 24.538 9.00834H9.46187Z" fill="white" stroke="white" stroke-width="0.4"/>
</g>
</svg>
