<svg width="31" height="22" viewBox="0 0 31 22" fill="none" xmlns="http://www.w3.org/2000/svg">
<path d="M0.223655 21.8125L0.0229811 12.2521C0.0098651 11.6272 0.122509 11.0372 0.360911 10.4821C0.599314 9.92695 0.964788 9.46918 1.45733 9.10877L1.36605 4.75972C1.34244 3.63497 1.7038 2.68343 2.45013 1.9051C3.19646 1.12676 4.132 0.725791 5.25675 0.702182L12.0053 0.560529C12.5551 0.548987 13.0702 0.663205 13.5503 0.903182C14.0304 1.14316 14.4499 1.47193 14.8088 1.88949C15.1498 1.45724 15.5489 1.11129 16.006 0.851636C16.4632 0.591985 16.9667 0.456389 17.5166 0.444847L24.2651 0.303194C25.3898 0.279586 26.3476 0.640815 27.1384 1.38688C27.9293 2.13295 28.3365 3.06836 28.3601 4.19311L28.4514 8.54216C28.9586 8.88159 29.343 9.32362 29.6045 9.86825C29.866 10.4129 30.0033 10.9976 30.0164 11.6225L30.217 21.1829L27.9675 21.2301L27.9046 18.2308L2.4102 18.7659L2.47316 21.7652L0.223655 21.8125ZM16.0657 8.16449L26.1885 7.95201L26.1106 4.24033C26.1001 3.74044 25.9227 3.33157 25.5785 3.01373C25.2342 2.69588 24.8122 2.54221 24.3123 2.5527L17.4513 2.69671C17.0264 2.70563 16.6739 2.88807 16.3938 3.24402C16.1137 3.59998 15.9784 4.00291 15.9878 4.45281L16.0657 8.16449ZM3.69346 8.42419L13.8162 8.21171L13.7383 4.50003C13.7289 4.05013 13.5768 3.65323 13.282 3.30934C12.9872 2.96545 12.6274 2.79797 12.2025 2.80689L5.30397 2.95169C4.82908 2.96165 4.42646 3.13889 4.09611 3.4834C3.76577 3.82791 3.60558 4.23761 3.61555 4.71251L3.69346 8.42419ZM2.36299 16.5164L27.8574 15.9813L27.7669 11.6697C27.758 11.2448 27.6068 10.8916 27.3133 10.6102C27.0198 10.3288 26.6606 10.1926 26.2357 10.2015L3.74068 10.6737C3.31577 10.6826 2.96262 10.8338 2.68121 11.1273C2.39981 11.4207 2.26357 11.7799 2.27249 12.2048L2.36299 16.5164Z" fill="#C2185B"/>
</svg>
