<svg width="36" height="28" viewBox="0 0 36 28" fill="none" xmlns="http://www.w3.org/2000/svg">
<g id="Group 1">
<path id="Vector" d="M32.2783 0.366581H14.8884C13.5712 0.374098 12.3033 0.847522 11.3286 1.69585L11.1506 1.88331L0.471011 14.6306C0.185812 14.97 0.0471814 15.4011 0.0835943 15.8353C0.120007 16.2695 0.328699 16.6739 0.666803 16.9654L11.3464 26.3043C12.3211 27.1526 13.589 27.626 14.9062 27.6336H32.2961C33.1617 27.6381 33.9939 27.3144 34.6109 26.7332C35.228 26.152 35.5796 25.3606 35.589 24.5319V3.4682C35.5843 3.05641 35.495 2.64952 35.3261 2.27078C35.1572 1.89205 34.9121 1.54887 34.6046 1.26085C34.2972 0.972835 33.9335 0.745619 33.5344 0.592179C33.1352 0.438739 32.7084 0.362081 32.2783 0.366581ZM32.0291 24.2252H14.8884C14.4473 24.2241 14.0223 24.0662 13.6959 23.7821L4.20886 15.5168L13.7849 4.14987C14.098 3.90931 14.4869 3.77718 14.8884 3.77495H32.0291V24.2252Z" fill="white"/>
<path id="Vector_2" d="M16.526 18.6184C16.6915 18.7782 16.8883 18.9049 17.1052 18.9915C17.3221 19.078 17.5548 19.1225 17.7898 19.1225C18.0247 19.1225 18.2574 19.078 18.4743 18.9915C18.6912 18.9049 18.888 18.7782 19.0535 18.6184L21.3496 16.403L23.6457 18.6184C23.8112 18.7782 24.0081 18.9049 24.225 18.9915C24.4419 19.078 24.6745 19.1225 24.9095 19.1225C25.1444 19.1225 25.3771 19.078 25.594 18.9915C25.8109 18.9049 26.0078 18.7782 26.1732 18.6184C26.34 18.46 26.4725 18.2715 26.5628 18.0638C26.6532 17.8562 26.6997 17.6334 26.6997 17.4085C26.6997 17.1835 26.6532 16.9607 26.5628 16.7531C26.4725 16.5454 26.34 16.3569 26.1732 16.1985L23.8593 14.0001L26.1732 11.8017C26.5084 11.4808 26.6967 11.0455 26.6967 10.5917C26.6967 10.1379 26.5084 9.70265 26.1732 9.38174C25.8381 9.06084 25.3835 8.88055 24.9095 8.88055C24.4355 8.88055 23.9809 9.06084 23.6457 9.38174L21.3496 11.5972L19.0535 9.38174C18.7183 9.06084 18.2638 8.88055 17.7898 8.88055C17.3158 8.88055 16.8612 9.06084 16.526 9.38174C16.1908 9.70265 16.0026 10.1379 16.0026 10.5917C16.0026 11.0455 16.1908 11.4808 16.526 11.8017L18.8399 14.0001L16.526 16.1985C16.3592 16.3569 16.2268 16.5454 16.1364 16.7531C16.046 16.9607 15.9995 17.1835 15.9995 17.4085C15.9995 17.6334 16.046 17.8562 16.1364 18.0638C16.2268 18.2715 16.3592 18.46 16.526 18.6184Z" fill="white"/>
</g>
</svg>
