<svg width="24" height="22" viewBox="0 0 24 22" fill="none" xmlns="http://www.w3.org/2000/svg">
<path d="M21.215 3.60999C20.7042 3.099 20.0978 2.69364 19.4304 2.41708C18.7629 2.14052 18.0475 1.99817 17.325 1.99817C16.6025 1.99817 15.8871 2.14052 15.2196 2.41708C14.5522 2.69364 13.9458 3.099 13.435 3.60999L12.375 4.66999L11.315 3.60999C10.2833 2.5783 8.88403 1.9987 7.425 1.9987C5.96596 1.9987 4.56669 2.5783 3.535 3.60999C2.5033 4.64169 1.92371 6.04096 1.92371 7.49999C1.92371 8.95903 2.5033 10.3583 3.535 11.39L4.595 12.45L12.375 20.23L20.155 12.45L21.215 11.39C21.726 10.8792 22.1313 10.2728 22.4079 9.60535C22.6845 8.93789 22.8268 8.22248 22.8268 7.49999C22.8268 6.77751 22.6845 6.0621 22.4079 5.39464C22.1313 4.72718 21.726 4.12075 21.215 3.60999V3.60999Z" stroke="#667085" stroke-width="2" stroke-linecap="round" stroke-linejoin="round"/>
</svg>
