<svg width="34" height="34" viewBox="0 0 34 34" fill="none" xmlns="http://www.w3.org/2000/svg">
<g id="icon">
<path id="Vector" d="M28.3334 27.625V28.3333C28.3334 29.0848 28.0349 29.8055 27.5036 30.3368C26.9722 30.8682 26.2515 31.1667 25.5001 31.1667H8.50008C7.74863 31.1667 7.02797 30.8682 6.49661 30.3368C5.96526 29.8055 5.66675 29.0848 5.66675 28.3333V5.66668C5.66675 4.91523 5.96526 4.19456 6.49661 3.66321C7.02797 3.13185 7.74863 2.83334 8.50008 2.83334H20.5417L25.5001 7.79168" stroke="white" stroke-width="2.5" stroke-linecap="round" stroke-linejoin="round"/>
<path id="Vector_2" d="M11.3333 25.5H12.7499" stroke="white" stroke-width="2.5" stroke-linecap="round" stroke-linejoin="round"/>
<path id="Vector_3" d="M26.0951 13.6142C26.3714 13.3379 26.6993 13.1188 27.0603 12.9692C27.4213 12.8197 27.8081 12.7428 28.1988 12.7428C28.5895 12.7428 28.9764 12.8197 29.3374 12.9692C29.6983 13.1188 30.0263 13.3379 30.3026 13.6142C30.5788 13.8904 30.798 14.2184 30.9475 14.5794C31.097 14.9403 31.174 15.3272 31.174 15.7179C31.174 16.1086 31.097 16.4955 30.9475 16.8565C30.798 17.2174 30.5788 17.5454 30.3026 17.8217L24.0126 24.0833L18.4167 25.5L19.8192 19.9042L26.0951 13.6142Z" stroke="white" stroke-width="2.5" stroke-linecap="round" stroke-linejoin="round"/>
</g>
</svg>
