<svg width="20" height="20" viewBox="0 0 20 20" fill="none" xmlns="http://www.w3.org/2000/svg">
<g id="globe" clip-path="url(#clip0_15_12819)">
<path id="Icon" d="M18.3332 10C18.3332 14.6024 14.6022 18.3333 9.99984 18.3333M18.3332 10C18.3332 5.39763 14.6022 1.66667 9.99984 1.66667M18.3332 10H1.6665M9.99984 18.3333C5.39746 18.3333 1.6665 14.6024 1.6665 10M9.99984 18.3333C12.0842 16.0514 13.2688 13.09 13.3332 10C13.2688 6.91003 12.0842 3.94863 9.99984 1.66667M9.99984 18.3333C7.91544 16.0514 6.73088 13.09 6.6665 10C6.73088 6.91003 7.91544 3.94863 9.99984 1.66667M1.6665 10C1.6665 5.39763 5.39746 1.66667 9.99984 1.66667" stroke="#00ADB5" stroke-width="2" stroke-linecap="round" stroke-linejoin="round"/>
</g>
<defs>
<clipPath id="clip0_15_12819">
<rect width="20" height="20" fill="white"/>
</clipPath>
</defs>
</svg>
