<svg width="25" height="24" viewBox="0 0 25 24" fill="none" xmlns="http://www.w3.org/2000/svg">
<g id="phone">
<path id="Icon" d="M22.6249 16.92V19.92C22.6261 20.1985 22.569 20.4742 22.4574 20.7294C22.3459 20.9845 22.1822 21.2136 21.977 21.4019C21.7718 21.5901 21.5295 21.7335 21.2657 21.8227C21.0019 21.9119 20.7223 21.9451 20.4449 21.92C17.3678 21.5856 14.4119 20.5342 11.8149 18.85C9.39876 17.3147 7.35027 15.2662 5.81493 12.85C4.12491 10.2412 3.07318 7.271 2.74493 4.18001C2.71994 3.90347 2.75281 3.62477 2.84143 3.36163C2.93006 3.09849 3.0725 2.85669 3.2597 2.65163C3.44689 2.44656 3.67474 2.28271 3.92872 2.17053C4.18271 2.05834 4.45727 2.00027 4.73493 2.00001H7.73493C8.22024 1.99523 8.69072 2.16708 9.05869 2.48354C9.42666 2.79999 9.66701 3.23945 9.73493 3.72001C9.86156 4.68007 10.0964 5.62273 10.4349 6.53001C10.5695 6.88793 10.5986 7.27692 10.5188 7.65089C10.4391 8.02485 10.2538 8.36812 9.98493 8.64001L8.71493 9.91001C10.1385 12.4136 12.2114 14.4865 14.7149 15.91L15.9849 14.64C16.2568 14.3711 16.6001 14.1859 16.9741 14.1061C17.348 14.0263 17.737 14.0555 18.0949 14.19C19.0022 14.5286 19.9449 14.7634 20.9049 14.89C21.3907 14.9585 21.8343 15.2032 22.1515 15.5775C22.4686 15.9518 22.6371 16.4296 22.6249 16.92Z" stroke="#98A2B3" stroke-width="2" stroke-linecap="round" stroke-linejoin="round"/>
</g>
</svg>
