<svg width="54" height="54" viewBox="0 0 54 54" fill="none" xmlns="http://www.w3.org/2000/svg">
<g id="touch_app_FILL0_wght400_GRAD0_opsz48 1">
<path id="Vector" d="M25.0675 49.5C24.0001 49.5 22.9696 49.275 21.9758 48.825C20.9821 48.375 20.1539 47.7188 19.4914 46.8562L7.51123 31.3312L8.67061 30.0375C9.18588 29.475 9.82078 29.1281 10.5753 28.9969C11.3298 28.8656 12.0383 28.9875 12.7008 29.3625L18.1664 32.3438V11.8125C18.1664 11.3344 18.3261 10.9336 18.6454 10.6102C18.9647 10.2867 19.3604 10.125 19.8323 10.125C20.3044 10.125 20.6968 10.2867 21.0097 10.6102C21.3225 10.9336 21.4789 11.3344 21.4789 11.8125V37.9688L13.5289 33.6375L22.1414 44.775C22.5095 45.225 22.9467 45.5625 23.4532 45.7875C23.9596 46.0125 24.4977 46.125 25.0675 46.125H36.3852C37.7838 46.125 38.9616 45.6375 39.9185 44.6625C40.8755 43.6875 41.3539 42.4875 41.3539 41.0625V31.5C41.3539 30.5437 41.0365 29.7422 40.4016 29.0953C39.7667 28.4484 38.98 28.125 38.0414 28.125H25.8956V24.75H38.0219C39.8676 24.75 41.4365 25.4062 42.7285 26.7188C44.0204 28.0312 44.6664 29.625 44.6664 31.5V41.0625C44.6664 43.425 43.8659 45.4219 42.2649 47.0531C40.6638 48.6844 38.7039 49.5 36.3852 49.5H25.0675ZM11.7071 16.5938C11.2995 15.8905 10.986 15.1312 10.7665 14.3161C10.547 13.5009 10.4373 12.6618 10.4373 11.7987C10.4373 9.14539 11.3524 6.89062 13.1825 5.03437C15.0127 3.17812 17.2261 2.25 19.8227 2.25C22.4193 2.25 24.6327 3.18259 26.4629 5.04776C28.293 6.91294 29.2081 9.16867 29.2081 11.815C29.2081 12.6758 29.0984 13.5123 28.8789 14.3245C28.6594 15.1367 28.3459 15.8931 27.9383 16.5938L25.0675 14.9062C25.3251 14.4562 25.5275 13.9688 25.6748 13.4437C25.822 12.9187 25.8956 12.366 25.8956 11.7856C25.8956 10.0785 25.3045 8.625 24.1224 7.425C22.9403 6.225 21.5049 5.625 19.8162 5.625C18.1275 5.625 16.6942 6.22656 15.5164 7.42967C14.3387 8.63282 13.7498 10.0938 13.7498 11.8125C13.7498 12.375 13.8234 12.9187 13.9706 13.4437C14.1178 13.9688 14.3203 14.4562 14.5779 14.9062L11.7071 16.5938Z" fill="white"/>
</g>
</svg>
